<svg width="24" height="24" viewBox="0 0 24 24" fill="none" xmlns="http://www.w3.org/2000/svg">
<path d="M16.2929 14.2929C16.6834 13.9024 17.3164 13.9024 17.707 14.2929C18.0975 14.6834 18.0975 15.3164 17.707 15.707L12.707 20.707C12.3164 21.0975 11.6834 21.0975 11.2929 20.707L6.29289 15.707C5.90237 15.3164 5.90237 14.6834 6.29289 14.2929C6.68342 13.9024 7.31643 13.9024 7.70696 14.2929L11.9999 18.5859L16.2929 14.2929Z" fill="white"/>
<path d="M11.3691 3.22462C11.7618 2.90427 12.3408 2.92686 12.707 3.29298L17.707 8.29298C18.0975 8.6835 18.0975 9.31652 17.707 9.70704C17.3164 10.0976 16.6834 10.0976 16.2929 9.70704L11.9999 5.41407L7.70696 9.70704C7.31643 10.0976 6.68342 10.0976 6.29289 9.70704C5.90237 9.31652 5.90237 8.6835 6.29289 8.29298L11.2929 3.29298L11.3691 3.22462Z" fill="white"/>
</svg>
